<?xml version="1.0" standalone="yes"?>

<svg version="1.1" viewBox="0.0 0.0 521.0 314.0" fill="none" stroke="none" stroke-linecap="square" stroke-miterlimit="10" xmlns="http://www.w3.org/2000/svg" xmlns:xlink="http://www.w3.org/1999/xlink"><clipPath id="p.0"><path d="m0 0l521.0 0l0 314.0l-521.0 0l0 -314.0z" clip-rule="nonzero"></path></clipPath><g clip-path="url(#p.0)"><path fill="#000000" fill-opacity="0.0" d="m0 0l521.853 0l0 314.6824l-521.853 0z" fill-rule="nonzero"></path><path fill="#272822" d="m6.846981 8.206037l508.15747 0l0 298.26773l-508.15747 0z" fill-rule="nonzero"></path><path stroke="#7fb347" stroke-width="2.0" stroke-linejoin="round" stroke-linecap="butt" d="m6.846981 8.206037l508.15747 0l0 298.26773l-508.15747 0z" fill-rule="nonzero"></path><path fill="#000000" fill-opacity="0.0" d="m315.15997 273.32596l-113.92125 -128.28348l113.92125 -128.28346z" fill-rule="nonzero"></path><path stroke="#7fb347" stroke-width="2.0" stroke-linejoin="round" stroke-linecap="butt" d="m315.15997 273.32596l-113.92125 -128.28348l113.92125 -128.28346z" fill-rule="nonzero"></path><path fill="#272822" d="m340.16586 16.744913l129.92126 0l0 256.56693l-129.92126 0z" fill-rule="nonzero"></path><path stroke="#7fb347" stroke-width="2.0" stroke-linejoin="round" stroke-linecap="butt" d="m340.16586 16.744913l129.92126 0l0 256.56693l-129.92126 0z" fill-rule="nonzero"></path><path fill="#272822" d="m181.16731 16.75252l0 256.56693l-120.377945 -256.56693z" fill-rule="nonzero"></path><path stroke="#7fb347" stroke-width="2.0" stroke-linejoin="round" stroke-linecap="butt" d="m181.16731 16.75252l0 256.56693l-120.377945 -256.56693z" fill-rule="nonzero"></path><path fill="#000000" fill-opacity="0.0" d="m315.15997 16.759024l0 128.28346" fill-rule="nonzero"></path><path stroke="#272822" stroke-width="3.0" stroke-linejoin="round" stroke-linecap="butt" d="m315.15997 16.759024l0 128.28346" fill-rule="nonzero"></path><path fill="#272822" d="m48.63503 273.30533l0 -256.56693l120.37796 256.56693z" fill-rule="nonzero"></path><path stroke="#7fb347" stroke-width="2.0" stroke-linejoin="round" stroke-linecap="butt" d="m48.63503 273.30533l0 -256.56693l120.37796 256.56693z" fill-rule="nonzero"></path><path fill="#000000" fill-opacity="0.0" d="m48.63503 273.30533l120.37796 0" fill-rule="nonzero"></path><path stroke="#272822" stroke-width="3.0" stroke-linejoin="round" stroke-linecap="butt" d="m48.63503 273.30533l120.37796 0" fill-rule="nonzero"></path><path fill="#000000" fill-opacity="0.0" d="m60.787643 16.738409l120.377945 0" fill-rule="nonzero"></path><path stroke="#272822" stroke-width="3.0" stroke-linejoin="round" stroke-linecap="butt" d="m60.787643 16.738409l120.377945 0" fill-rule="nonzero"></path><path fill="#272822" d="m340.1646 16.744913l120.37796 0l0 237.5433l-120.37796 0z" fill-rule="nonzero"></path><path stroke="#7fb347" stroke-width="2.0" stroke-linejoin="round" stroke-linecap="butt" d="m340.1646 16.744913l120.37796 0l0 237.5433l-120.37796 0z" fill-rule="nonzero"></path><path fill="#272822" d="m340.16452 16.744913l113.921265 0l0 221.92125l-113.921265 0z" fill-rule="nonzero"></path><path stroke="#7fb347" stroke-width="2.0" stroke-linejoin="round" stroke-linecap="butt" d="m340.16452 16.744913l113.921265 0l0 221.92125l-113.921265 0z" fill-rule="nonzero"></path><path fill="#000000" fill-opacity="0.0" d="m208.21692 137.54895l105.41733 116.72441" fill-rule="nonzero"></path><path stroke="#7fb347" stroke-width="2.0" stroke-linejoin="round" stroke-linecap="butt" d="m208.21692 137.54895l105.41733 116.72441" fill-rule="nonzero"></path><path fill="#000000" fill-opacity="0.0" d="m215.77219 130.57457l99.37009 108.09448" fill-rule="nonzero"></path><path stroke="#7fb347" stroke-width="2.0" stroke-linejoin="round" stroke-linecap="butt" d="m215.77219 130.57457l99.37009 108.09448" fill-rule="nonzero"></path><path fill="#000000" fill-opacity="0.0" d="m36.65865 16.738409l0 256.56693" fill-rule="nonzero"></path><path stroke="#7fb347" stroke-width="2.0" stroke-linejoin="round" stroke-linecap="butt" d="m36.65865 16.738409l0 256.56693" fill-rule="nonzero"></path><path fill="#000000" fill-opacity="0.0" d="m190.7479 16.738409l0 256.56693" fill-rule="nonzero"></path><path stroke="#7fb347" stroke-width="2.0" stroke-linejoin="round" stroke-linecap="butt" d="m190.7479 16.738409l0 256.56693" fill-rule="nonzero"></path><path fill="#000000" fill-opacity="0.0" d="m223.4672 138.13124l91.27557 -104.31497" fill-rule="nonzero"></path><path stroke="#7fb347" stroke-width="2.0" stroke-linejoin="round" stroke-linecap="butt" d="m223.4672 138.13124l91.27557 -104.31497" fill-rule="nonzero"></path><path fill="#000000" fill-opacity="0.0" d="m231.18373 148.5433l83.96849 -97.354324" fill-rule="nonzero"></path><path stroke="#7fb347" stroke-width="2.0" stroke-linejoin="round" stroke-linecap="butt" d="m231.18373 148.5433l83.96849 -97.354324" fill-rule="nonzero"></path></g></svg>

